<?xml version="1.0" standalone="no"?>
<!DOCTYPE svg PUBLIC "-//W3C//DTD SVG 20010904//EN"
 "http://www.w3.org/TR/2001/REC-SVG-20010904/DTD/svg10.dtd">
<svg version="1.0" xmlns="http://www.w3.org/2000/svg"
 width="460.000000pt" height="460.000000pt" viewBox="0 0 460.000000 460.000000"
 preserveAspectRatio="xMidYMid meet">
<metadata>
Created by potrace 1.11, written by Peter Selinger 2001-2013
</metadata>
<g transform="translate(0.000000,460.000000) scale(0.100000,-0.100000)"
fill="#000000" stroke="none">
<path d="M2130 3085 c0 -4 41 -130 91 -282 50 -151 87 -278 82 -282 -4 -4
-154 -61 -333 -126 -312 -113 -462 -168 -505 -185 -11 -4 -36 -13 -55 -20 -19
-7 -44 -16 -55 -20 -11 -4 -54 -20 -95 -35 -41 -14 -84 -31 -95 -35 -12 -6
463 -8 1177 -7 659 2 1201 6 1204 10 9 9 56 -26 -341 247 -187 129 -387 267
-445 306 -58 40 -181 125 -275 189 -93 64 -212 145 -262 181 -51 36 -93 62
-93 59z m346 -822 c35 -35 63 -63 61 -64 -1 0 -78 -3 -172 -5 l-170 -5 63 61
c60 59 62 62 62 112 l0 52 46 -44 c26 -25 75 -73 110 -107z"/>
</g>
</svg>
